<svg width="127.77998046875px" height="293.61494140625px" xmlns="http://www.w3.org/2000/svg" viewBox="186.110009765625 -71.807470703125 127.77998046875 293.61494140625" style="background: rgba(0, 0, 0, 0);" preserveAspectRatio="xMidYMid"><defs><filter id="editing-extrusion" x="-100%" y="-100%" width="300%" height="300%"><feFlood result="color1" flood-color="#55433b"></feFlood><feConvolveMatrix order="7,7" divisor="1" kernelMatrix="1 0 0 0 0 0 0 0 1 0 0 0 0 0 0 0 1 0 0 0 0 0 0 0 1 0 0 0 0 0 0 0 1 0 0 0 0 0 0 0 1 0 0 0 0 0 0 0 1" in="SourceAlpha" result="extrude"></feConvolveMatrix><feComposite in="color1" in2="extrude" result="comp-extrude" operator="in"></feComposite><feOffset dx="3.5" dy="3.5" in="comp-extrude" result="offset-extrude"></feOffset><feMerge><feMergeNode in="offset-extrude"></feMergeNode><feMergeNode in="SourceGraphic"></feMergeNode></feMerge></filter></defs><g filter="url(#editing-extrusion)"><g transform="translate(208.4000015258789, 115.89500045776367)"><path d="M30.08-31.62L30.08-16L30.08-16Q31.87-15.49 34.69-15.30L34.69-15.30L34.69-15.30Q37.50-15.10 40.06-15.10L40.06-15.10L40.06-15.10Q45.18-15.10 48.58-17.22L48.58-17.22L48.58-17.22Q51.97-19.33 51.97-23.81L51.97-23.81L51.97-23.81Q51.97-28.03 49.15-29.82L49.15-29.82L49.15-29.82Q46.34-31.62 40.58-31.62L40.58-31.62L30.08-31.62ZM30.08-62.34L30.08-47.23L39.42-47.23L39.42-47.23Q44.93-47.23 47.42-49.28L47.42-49.28L47.42-49.28Q49.92-51.33 49.92-55.30L49.92-55.30L49.92-55.30Q49.92-58.75 47.04-60.80L47.04-60.80L47.04-60.80Q44.16-62.85 38.40-62.85L38.40-62.85L38.40-62.85Q36.48-62.85 33.98-62.72L33.98-62.72L33.98-62.72Q31.49-62.59 30.08-62.34L30.08-62.34ZM38.40 2.05L38.40 2.05L38.40 2.05Q36.22 2.05 33.28 1.92L33.28 1.92L33.28 1.92Q30.34 1.79 27.20 1.41L27.20 1.41L27.20 1.41Q24.06 1.02 20.99 0.45L20.99 0.45L20.99 0.45Q17.92-0.13 15.36-1.15L15.36-1.15L15.36-1.15Q8.32-3.84 8.32-10.50L8.32-10.50L8.32-70.27L8.32-70.27Q8.32-72.96 9.79-74.43L9.79-74.43L9.79-74.43Q11.26-75.90 13.82-76.80L13.82-76.80L13.82-76.80Q18.18-78.34 24.70-79.04L24.70-79.04L24.70-79.04Q31.23-79.74 38.14-79.74L38.14-79.74L38.14-79.74Q54.53-79.74 63.36-74.24L63.36-74.24L63.36-74.24Q72.19-68.74 72.19-57.22L72.19-57.22L72.19-57.22Q72.19-51.46 68.86-47.30L68.86-47.30L68.86-47.30Q65.54-43.14 59.90-41.22L59.90-41.22L59.90-41.22Q66.30-39.42 70.59-34.69L70.59-34.69L70.59-34.69Q74.88-29.95 74.88-22.78L74.88-22.78L74.88-22.78Q74.88-10.11 65.47-4.03L65.47-4.03L65.47-4.03Q56.06 2.05 38.40 2.05Z" fill="#ffa07a"></path></g></g><style>text {
  font-size: 64px;
  font-family: Arial Black;
  dominant-baseline: central;
  text-anchor: middle;
}</style></svg>