<svg width="506.7525634765625px" height="198.839990234375px" xmlns="http://www.w3.org/2000/svg" viewBox="-3.37628173828125 -24.419995117187497 506.7525634765625 198.839990234375" style="background: rgba(0, 0, 0, 0);" preserveAspectRatio="xMidYMid"><defs><filter id="editing-extrusion" x="-100%" y="-100%" width="300%" height="300%"><feFlood result="color1" flood-color="#55433b"></feFlood><feConvolveMatrix order="8,8" divisor="1" kernelMatrix="1 0 0 0 0 0 0 0 0 1 0 0 0 0 0 0 0 0 1 0 0 0 0 0 0 0 0 1 0 0 0 0 0 0 0 0 1 0 0 0 0 0 0 0 0 1 0 0 0 0 0 0 0 0 1 0 0 0 0 0 0 0 0 1" in="SourceAlpha" result="extrude"></feConvolveMatrix><feComposite in="color1" in2="extrude" result="comp-extrude" operator="in"></feComposite><feOffset dx="4" dy="4" in="comp-extrude" result="offset-extrude"></feOffset><feMerge><feMergeNode in="offset-extrude"></feMergeNode><feMergeNode in="SourceGraphic"></feMergeNode></feMerge></filter></defs><g filter="url(#editing-extrusion)"><g transform="translate(70.51000785827637, 128.5)"><path d="M7.06-72.55L7.06-72.55L7.06-72.55Q22.47-76.61 33.92-76.61L33.92-76.61L33.92-76.61Q58.42-76.61 58.42-59.60L58.42-59.60L58.42-59.60Q58.42-49.22 48.69-43.76L48.69-43.76L48.69-43.76Q55.21-42.16 59.49-37.61L59.49-37.61L59.49-37.61Q63.77-33.06 63.77-26.21L63.77-26.21L63.77-26.21Q63.77-13.38 54.25-6.37L54.25-6.37L54.25-6.37Q44.73 0.64 30.71 0.64L30.71 0.64L30.71 0.64Q16.69 0.64 6.42-4.92L6.42-4.92L6.42-4.92Q9.74-16.48 9.74-36.11L9.74-36.11L9.74-36.11Q9.74-55.75 7.06-72.55ZM23.22-10.91L23.22-10.91L23.22-10.91Q27.93-9.42 32.63-9.42L32.63-9.42L32.63-9.42Q40.02-9.42 44.83-13.11L44.83-13.11L44.83-13.11Q49.65-16.80 49.65-23.54L49.65-23.54L49.65-23.54Q49.65-36.38 35.74-36.38L35.74-36.38L35.74-36.38Q29.10-36.38 22.26-33.60L22.26-33.60L22.26-33.60Q22.26-22.79 23.22-10.91ZM22.15-43.01L22.15-43.01L22.15-43.01Q23.65-43.34 26.59-43.76L26.59-43.76L26.59-43.76Q29.53-44.19 31.14-44.51L31.14-44.51L31.14-44.51Q32.74-44.83 35.15-45.48L35.15-45.48L35.15-45.48Q37.56-46.12 38.89-47.03L38.89-47.03L38.89-47.03Q40.23-47.94 41.62-49.33L41.62-49.33L41.62-49.33Q44.30-52.00 44.30-57.14L44.30-57.14L44.30-57.14Q44.30-67.09 32.42-67.09L32.42-67.09L32.42-67.09Q28.57-67.09 23.00-65.80L23.00-65.80L23.00-65.80Q22.15-43.87 22.15-43.01ZM74.79-78.97L74.79-78.97L74.79-78.97Q78.22-80.25 81.85-80.25L81.85-80.25L81.85-80.25Q85.49-80.25 87.90-77.84L87.90-77.84L87.90-77.84Q90.31-75.44 90.31-71.32L90.31-71.32L90.31-71.32Q90.31-67.20 89.18-54.84L89.18-54.84L89.18-54.84Q88.06-42.48 88.06-35.42L88.06-35.42L88.06-35.42Q88.06-17.98 90.52-1.28L90.52-1.28L90.52-1.28Q87.10 0 83.25 0L83.25 0L83.25 0Q75.01 0 75.01-8.03L75.01-8.03L75.01-8.03Q75.01-11.88 76.18-23.17L76.18-23.17L76.18-23.17Q77.36-34.45 77.36-41.30L77.36-41.30L77.36-41.30Q77.36-64.09 74.79-78.97ZM121.87 1.28L121.87 1.28L121.87 1.28Q110.10 1.28 104.54-5.62L104.54-5.62L104.54-5.62Q98.97-12.52 98.97-24.88L98.97-24.88L98.97-24.88Q98.97-37.24 106.36-46.33L106.36-46.33L106.36-46.33Q113.74-55.43 125.30-55.43L125.30-55.43L125.30-55.43Q149.05-55.43 149.05-28.68L149.05-28.68L149.05-28.68Q149.05-16.16 141.35-7.44L141.35-7.44L141.35-7.44Q133.64 1.28 121.87 1.28ZM114.17-43.66L114.17-43.66L114.17-43.66Q112.24-37.45 112.24-31.24L112.24-31.24L112.24-31.24Q112.24-25.04 112.67-21.61L112.67-21.61L112.67-21.61Q113.10-18.19 114.28-14.77L114.28-14.77L114.28-14.77Q116.74-7.81 123.96-7.81L123.96-7.81L123.96-7.81Q131.18-7.81 133.48-11.66L133.48-11.66L133.48-11.66Q135.78-15.52 135.78-23.54L135.78-23.54L135.78-23.54Q135.78-46.33 124.98-46.33L124.98-46.33L124.98-46.33Q118.77-46.33 114.17-43.66ZM193.88-43.98L193.88-43.98L193.88-43.98Q188.21-45.69 182.65-45.69L182.65-45.69L182.65-45.69Q177.09-45.69 172.16-42.37L172.16-42.37L172.16-42.37Q168.31-34.67 168.31-26.00L168.31-26.00L168.31-26.00Q168.31-20.97 169.70-16.21L169.70-16.21L169.70-16.21Q171.09-11.45 174.30-11.45L174.30-11.45L174.30-11.45Q177.94-11.45 184.04-21.83L184.04-21.83L184.04-21.83Q190.14-32.21 193.88-43.98ZM177.83 17.55L177.83 17.55L177.83 17.55Q184.68 17.55 188.53 12.84L188.53 12.84L188.53 12.84Q192.39 8.13 192.39 0.75L192.39 0.75L192.39 0.75Q192.39-2.89 191.90-9.84L191.90-9.84L191.90-9.84Q191.42-16.80 191.32-19.69L191.32-19.69L191.32-19.69Q183.72-6.42 178.05-3.42L178.05-3.42L178.05-3.42Q175.16-1.93 171.95-1.93L171.95-1.93L171.95-1.93Q163.92-1.93 159.54-8.24L159.54-8.24L159.54-8.24Q155.15-14.55 155.15-23.65L155.15-23.65L155.15-23.65Q155.15-36.06 162.91-45.42L162.91-45.42L162.91-45.42Q170.66-54.78 182.60-54.78L182.60-54.78L182.60-54.78Q194.53-54.78 206.72-50.61L206.72-50.61L206.72-50.61Q203.51-39.16 203.51-28.14L203.51-28.14L203.51-28.14Q203.51-22.90 204.26-15.14L204.26-15.14L204.26-15.14Q205.01-7.38 205.01-3.64L205.01-3.64L205.01-3.64Q205.01 9.52 196.67 18.14L196.67 18.14L196.67 18.14Q188.32 26.75 175.27 26.75L175.27 26.75L175.27 26.75Q167.56 26.75 162.05 23.81L162.05 23.81L162.05 23.81Q156.54 20.86 156.54 14.66L156.54 14.66L156.54 14.66Q156.54 10.81 159.43 8.13L159.43 8.13L159.43 8.13Q162.32 5.46 166.28 5.46L166.28 5.46L166.28 5.46Q167.13 5.46 168.42 5.67L168.42 5.67L168.42 5.67Q168.10 7.06 168.10 8.13L168.10 8.13L168.10 8.13Q168.10 11.98 170.99 14.77L170.99 14.77L170.99 14.77Q173.88 17.55 177.83 17.55ZM252.95-43.98L252.95-43.98L252.95-43.98Q247.28-45.69 241.71-45.69L241.71-45.69L241.71-45.69Q236.15-45.69 231.23-42.37L231.23-42.37L231.23-42.37Q227.38-34.67 227.38-26.00L227.38-26.00L227.38-26.00Q227.38-20.97 228.77-16.21L228.77-16.21L228.77-16.21Q230.16-11.45 233.37-11.45L233.37-11.45L233.37-11.45Q237.00-11.45 243.10-21.83L243.10-21.83L243.10-21.83Q249.20-32.21 252.95-43.98ZM236.90 17.55L236.90 17.55L236.90 17.55Q243.75 17.55 247.60 12.84L247.60 12.84L247.60 12.84Q251.45 8.13 251.45 0.75L251.45 0.75L251.45 0.75Q251.45-2.89 250.97-9.84L250.97-9.84L250.97-9.84Q250.49-16.80 250.38-19.69L250.38-19.69L250.38-19.69Q242.78-6.42 237.11-3.42L237.11-3.42L237.11-3.42Q234.22-1.93 231.01-1.93L231.01-1.93L231.01-1.93Q222.99-1.93 218.60-8.24L218.60-8.24L218.60-8.24Q214.21-14.55 214.21-23.65L214.21-23.65L214.21-23.65Q214.21-36.06 221.97-45.42L221.97-45.42L221.97-45.42Q229.73-54.78 241.66-54.78L241.66-54.78L241.66-54.78Q253.59-54.78 265.79-50.61L265.79-50.61L265.79-50.61Q262.58-39.16 262.58-28.14L262.58-28.14L262.58-28.14Q262.58-22.90 263.33-15.14L263.33-15.14L263.33-15.14Q264.08-7.38 264.08-3.64L264.08-3.64L264.08-3.64Q264.08 9.52 255.73 18.14L255.73 18.14L255.73 18.14Q247.38 26.75 234.33 26.75L234.33 26.75L234.33 26.75Q226.63 26.75 221.12 23.81L221.12 23.81L221.12 23.81Q215.60 20.86 215.60 14.66L215.60 14.66L215.60 14.66Q215.60 10.81 218.49 8.13L218.49 8.13L218.49 8.13Q221.38 5.46 225.34 5.46L225.34 5.46L225.34 5.46Q226.20 5.46 227.48 5.67L227.48 5.67L227.48 5.67Q227.16 7.06 227.16 8.13L227.16 8.13L227.16 8.13Q227.16 11.98 230.05 14.77L230.05 14.77L230.05 14.77Q232.94 17.55 236.90 17.55ZM276.81-78.97L276.81-78.97L276.81-78.97Q280.23-80.25 283.87-80.25L283.87-80.25L283.87-80.25Q287.51-80.25 289.92-77.84L289.92-77.84L289.92-77.84Q292.32-75.44 292.32-71.32L292.32-71.32L292.32-71.32Q292.32-67.20 291.20-54.84L291.20-54.84L291.20-54.84Q290.08-42.48 290.08-35.42L290.08-35.42L290.08-35.42Q290.08-17.98 292.54-1.28L292.54-1.28L292.54-1.28Q289.11 0 285.26 0L285.26 0L285.26 0Q277.02 0 277.02-8.03L277.02-8.03L277.02-8.03Q277.02-11.88 278.20-23.17L278.20-23.17L278.20-23.17Q279.38-34.45 279.38-41.30L279.38-41.30L279.38-41.30Q279.38-64.09 276.81-78.97ZM305.59-17.76L305.59-17.76L306.66-33.17L306.66-33.17Q306.66-43.55 303.67-52.86L303.67-52.86L303.67-52.86Q306.66-54.14 311.05-54.14L311.05-54.14L311.05-54.14Q319.61-54.14 319.61-44.62L319.61-44.62L319.61-44.62Q319.61-40.34 318.43-32.53L318.43-32.53L318.43-32.53Q317.25-24.72 317.25-21.77L317.25-21.77L317.25-21.77Q317.25-18.83 317.36-17.49L317.36-17.49L317.36-17.49Q317.47-16.16 317.90-14.34L317.90-14.34L317.90-14.34Q318.54-10.70 322.12-10.70L322.12-10.70L322.12-10.70Q325.71-10.70 329.83-16.42L329.83-16.42L329.83-16.42Q333.95-22.15 336.46-29.10L336.46-29.10L336.46-29.10Q338.98-36.06 338.98-40.13L338.98-40.13L338.98-40.13Q338.44-48.58 337.16-52.86L337.16-52.86L337.16-52.86Q340.58-54.14 344.17-54.14L344.17-54.14L344.17-54.14Q347.75-54.14 350.16-51.89L350.16-51.89L350.16-51.89Q352.56-49.65 352.56-45.90L352.56-45.90L352.56-45.90Q352.56 12.52 331.17 24.18L331.17 24.18L331.17 24.18Q326.35 26.75 320.25 26.75L320.25 26.75L320.25 26.75Q314.15 26.75 309.60 23.54L309.60 23.54L309.60 23.54Q305.06 20.33 305.06 14.55L305.06 14.55L305.06 14.55Q305.06 10.70 307.95 8.08L307.95 8.08L307.95 8.08Q310.83 5.46 314.79 5.46L314.79 5.46L314.79 5.46Q315.65 5.46 316.93 5.67L316.93 5.67L316.93 5.67Q316.61 7.06 316.61 8.13L316.61 8.13L316.61 8.13Q316.61 17.55 323.14 17.55L323.14 17.55L323.14 17.55Q327.10 17.55 330.31 13.27L330.31 13.27L330.31 13.27Q333.52 8.99 335.44 2.78L335.44 2.78L335.44 2.78Q339.19-9.84 339.19-20.12L339.19-20.12L339.19-20.12Q335.98-11.45 330.47-6.15L330.47-6.15L330.47-6.15Q324.96-0.86 318.54-0.86L318.54-0.86L318.54-0.86Q305.59-0.86 305.59-17.76Z" fill="#ffa07a"></path></g></g><style>text {
  font-size: 64px;
  font-family: Arial Black;
  dominant-baseline: central;
  text-anchor: middle;
}</style></svg>